HIERARCHY
ROOT Hips
{
  OFFSET 54.6149 99.932 -351.12
  CHANNELS 6 Xposition Yposition Zposition Zrotation Xrotation Yrotation
  JOINT ToSpine
  {
    OFFSET -0.0105055 1.38907 -7.13956
    CHANNELS 3 Zrotation Xrotation Yrotation
    JOINT Spine
    {
      OFFSET 0.0105055 10 1
      CHANNELS 3 Zrotation Xrotation Yrotation
      JOINT Spine1
      {
        OFFSET 0 12 1.60637
        CHANNELS 3 Zrotation Xrotation Yrotation
        JOINT Neck
        {
          OFFSET 0 27 2.26658
          CHANNELS 3 Zrotation Xrotation Yrotation
          JOINT Head
          {
            OFFSET 0 9 2.12705
            CHANNELS 3 Zrotation Xrotation Yrotation
            End Site
            {
              OFFSET 0 11 2
            }
          }
        }
        JOINT LeftShoulder
        {
          OFFSET 8 19.6109 2.86452
          CHANNELS 3 Zrotation Xrotation Yrotation
          JOINT LeftArm
          {
            OFFSET 12 1 0.681055
            CHANNELS 3 Zrotation Xrotation Yrotation
            JOINT LeftForeArm
            {
              OFFSET 19 0 -1.52608
              CHANNELS 3 Zrotation Xrotation Yrotation
              JOINT LeftHand
              {
                OFFSET 23 0 0
                CHANNELS 3 Zrotation Xrotation Yrotation
                End Site
                {
                  OFFSET 10 0 0
                }
              }
            }
          }
        }
        JOINT RightShoulder
        {
          OFFSET -8 19.6109 2.86452
          CHANNELS 3 Zrotation Xrotation Yrotation
          JOINT RightArm
          {
            OFFSET -12 1 0.681055
            CHANNELS 3 Zrotation Xrotation Yrotation
            JOINT RightForeArm
            {
              OFFSET -19 0 -1.52608
              CHANNELS 3 Zrotation Xrotation Yrotation
              JOINT RightHand
              {
                OFFSET -23 0 0
                CHANNELS 3 Zrotation Xrotation Yrotation
                End Site
                {
                  OFFSET -10 0 0
                }
              }
            }
          }
        }
      }
    }
  }
  JOINT LeftUpLeg
  {
    OFFSET 9 -7.17245 0
    CHANNELS 3 Zrotation Xrotation Yrotation
    JOINT LeftLeg
    {
      OFFSET 0 -44.1113 0
      CHANNELS 3 Zrotation Xrotation Yrotation
      JOINT LeftFoot
      {
        OFFSET 0 -36.1829 0
        CHANNELS 3 Zrotation Xrotation Yrotation
        JOINT LeftToeBase
        {
          OFFSET 0 -4.84184 13
          CHANNELS 3 Zrotation Xrotation Yrotation
          End Site
          {
            OFFSET 0 1 6
          }
        }
      }
    }
  }
  JOINT RightUpLeg
  {
    OFFSET -9 -7.17245 0
    CHANNELS 3 Zrotation Xrotation Yrotation
    JOINT RightLeg
    {
      OFFSET 0 -44.0551 0
      CHANNELS 3 Zrotation Xrotation Yrotation
      JOINT RightFoot
      {
        OFFSET 0 -36.1469 0
        CHANNELS 3 Zrotation Xrotation Yrotation
        JOINT RightToeBase
        {
          OFFSET 0 -4.92256 13
          CHANNELS 3 Zrotation Xrotation Yrotation
          End Site
          {
            OFFSET 0 1 6
          }
        }
      }
    }
  }
}
MOTION
Frames:	15
Frame Time:	0.0333333
54.6149 99.932 -351.12 1.87604 -2.69321 3.9119 0 0 0 7.47829 -6.79426 -1.6856 -8.95029 11.2104 -0.145403 9.26045 -0.220805 -2.84861 -10.2451 1.64524 2.36593 -30.1179 2.85339 -4.37321 -47.8258 21.0691 -11.712 -4.69332 -13.1358 -3.5737 -7.61728 0.479109 -7.18753 26.3089 6.13971 15.2597 51.0484 14.1592 7.3557 3.52157 5.67972 3.27332 1.61247 0.0554956 4.4098 -5.37109 5.4779 -0.0461298 5.70837 7.81768 -7.77346 3.7186 -11.3992 0.371268 0.373794 -0.636553 -1.42216 -9.56036 9.89996 -16.8931 7.12349 2.25862 6.61371 -15.0363 -2.28459 -0.301547 4.28552 -16.4923 -6.96499 
54.6167 99.914 -351.08 1.7509 -2.67479 3.58352 0 0 0 7.73716 -6.91277 -1.48921 -9.12135 11.3976 0.0862158 9.20336 -0.318313 -2.86678 -10.218 1.79158 2.33027 -30.2942 2.88596 -4.42484 -47.5959 21.0985 -11.7198 -4.73666 -13.0165 -3.71765 -7.63155 0.524026 -7.84466 26.8415 6.28411 15.3996 50.4807 14.3303 7.0781 3.43845 5.44761 3.68495 1.50695 0.0555096 4.21892 -5.277 5.38773 0.0384949 5.65505 8.06646 -7.55814 4.04214 -11.4946 0.406996 0.0252491 -1.43198 0.297606 -9.45826 9.76308 -16.7715 7.05129 2.30746 6.80512 -15.1445 -2.12163 -0.282072 4.36061 -16.8865 -7.27164 
54.6273 99.9717 -351.114 1.8692 -2.50738 3.51671 0 0 0 7.59501 -6.95141 -1.42014 -9.29042 11.2959 0.177429 9.52885 -0.189236 -2.88524 -10.3169 2.02529 2.4611 -30.0736 2.87247 -4.43529 -47.9255 20.6137 -11.8542 -4.64554 -12.8437 -3.34109 -9.4042 0.554038 -6.72818 26.2903 5.87675 14.4778 50.858 15.1871 8.03716 3.84316 4.95846 3.39775 1.4373 0.0569344 4.53661 -5.41456 5.44739 0.0252845 5.64487 7.50906 -7.35998 3.58711 -11.3967 0.358053 0.0385311 -1.63264 0.298863 -9.61054 9.52385 -16.7209 6.9756 2.36084 6.79436 -14.7446 -2.37012 -0.306701 4.46185 -17.0556 -5.06856 
54.6022 100.019 -351.189 1.77137 -2.24872 3.37243 0 0 0 7.79432 -6.76479 -1.52422 -9.51491 10.7537 0.0328116 9.16743 -0.0925665 -2.56513 -9.9952 2.14367 2.60626 -30.3655 2.81906 -4.22659 -47.7753 20.4734 -11.3899 -4.64041 -12.7946 -3.85595 -8.02572 0.550924 -7.84105 26.0395 5.97765 14.9168 50.8579 15.7865 7.83205 3.91709 4.89143 3.78744 1.48184 0.0552009 4.40775 -5.24267 5.26394 0.239823 5.46398 7.16894 -7.55077 3.74898 -11.1471 0.365974 0.166329 -0.495188 -0.571034 -9.56178 9.01429 -16.4845 6.6897 2.65334 6.63781 -12.625 -3.04662 -0.337101 3.9979 -15.1008 -6.37164 
54.5811 100.015 -351.274 1.56072 -1.92257 3.20741 0 0 0 8.12204 -6.85568 -1.47205 -9.74958 10.4894 0.0247316 8.89636 0.212995 -2.54195 -10 1.73284 2.53742 -30.9519 2.85312 -4.19735 -47.2642 20.4893 -11.1902 -4.68485 -13.0933 -4.08957 -8.10894 0.556159 -7.83407 25.9388 5.94147 14.8614 50.5976 16.5922 8.00763 4.19112 4.15293 3.86456 1.18926 0.0519977 4.66765 -4.92739 4.62169 0.552457 5.19637 7.64075 -7.75137 4.12783 -11.1297 0.402355 -0.0113654 -1.52346 0.486348 -9.40277 8.39216 -16.1335 6.5331 2.88171 6.33627 -11.5476 -3.07917 -0.311423 4.0359 -15.2383 -5.71958 
54.5759 100.031 -351.396 1.46816 -1.63527 2.79669 0 0 0 8.64838 -6.9739 -1.33998 -10.5246 10.5023 0.259278 8.88623 0.207226 -2.48952 -9.73686 1.63398 2.51446 -30.742 2.83803 -4.19993 -47.2235 20.5313 -11.2729 -4.72176 -13.4617 -4.13037 -7.81715 0.52093 -7.6133 25.8742 5.91829 14.8257 50.298 17.3843 8.38919 4.43305 3.53205 4.06966 1.15446 0.0482391 4.40744 -4.83888 4.21792 0.662443 5.10499 7.70626 -7.62187 4.26289 -11.1593 0.416641 -0.0489756 -1.74059 0.720292 -9.43863 7.70289 -15.9421 6.44578 3.28311 6.1569 -11.0442 -3.08291 -0.298121 4.09512 -15.4385 -4.71603 
54.6354 100.059 -351.492 1.40115 -1.48173 2.8129 0 0 0 9.00382 -6.9381 -1.32169 -11.0008 10.3271 0.332528 9.0082 0.50303 -2.77361 -9.81925 1.61866 2.31178 -30.8415 2.88732 -4.31246 -47.2332 20.0659 -11.4194 -4.62001 -13.0347 -3.74501 -7.50752 0.602686 -9.16645 26.4068 6.28333 15.6367 49.7722 17.333 7.46575 4.35019 2.29451 4.86466 1.305 0.0447152 4.44397 -4.61964 3.95656 0.991964 4.73924 7.74195 -7.87501 4.13733 -11.324 0.410367 0.0663285 -0.429569 -0.163375 -9.43736 7.43001 -15.8155 6.22167 3.33986 6.09359 -9.13422 -3.59404 -0.287187 3.9723 -14.8613 -3.49096 
54.7433 100.081 -351.615 1.30463 -1.32971 2.80512 0 0 0 8.87428 -6.70465 -1.333 -10.4123 10.0287 0.164019 7.74858 0.715531 -2.3101 -9.05012 1.66294 2.22007 -31.8763 2.94532 -4.2533 -46.0541 20.7127 -11.4084 -4.8768 -14.2222 -4.32348 -8.46433 0.671955 -9.06165 25.5969 6.22179 15.9088 50.076 17.7251 7.19066 4.42364 1.36578 5.51836 1.10231 0.0423001 4.39506 -4.6144 3.7326 0.937438 4.73078 7.69075 -7.74222 4.33149 -11.3584 0.430956 0.129043 -0.230073 -0.481005 -9.40946 7.02508 -15.6605 5.94339 3.64609 5.8474 -7.81433 -4.14257 -0.283056 3.71685 -13.8116 -2.93305 
54.7814 100.057 -351.756 0.981207 -0.861411 2.65043 0 0 0 9.52497 -6.77677 -1.03859 -11.1447 9.78285 0.515091 8.44327 1.12003 -2.3979 -9.35781 0.797857 2.37759 -31.3516 3.03996 -4.6134 -46.5522 18.5571 -11.3382 -4.06999 -9.88776 -3.7474 -7.36123 0.578275 -8.97127 27.125 7.24874 18.0683 49.1746 16.2563 4.21001 3.67572 0.256841 7.75581 1.14153 0.042072 4.22132 -3.88866 2.70658 1.75016 3.90991 8.60184 -8.52023 4.74267 -11.7342 0.48763 0.116241 -0.314053 -0.405308 -9.0406 6.18583 -15.0875 5.70376 3.91232 5.14126 -7.7825 -3.91562 -0.266442 3.87032 -14.4229 -2.56112 
54.9443 100.07 -351.878 0.984331 -0.646063 3.01314 0 0 0 9.24955 -7.01955 -1.14314 -10.8558 10.1822 0.341937 8.04604 1.68607 -1.97103 -8.60964 -0.505967 2.44664 -31.3438 3.02272 -4.56917 -46.6715 20.1255 -11.6571 -5.1279 -19.6349 -3.87648 -12.7159 0.124033 -1.11312 26.6621 7.04306 17.7484 49.0372 16.5702 4.53609 3.71789 -0.312939 8.46604 1.61882 0.0520507 3.68301 -3.75739 2.27857 1.96051 3.47087 8.802 -9.12033 5.01141 -11.8279 0.519438 0.0987568 0.313318 -0.492211 -8.98289 5.84732 -14.7698 5.25266 4.05427 4.35927 -6.73046 -4.2263 -0.248627 3.88477 -14.4957 -3.24188 
55.1583 100.07 -351.968 0.946229 -0.391141 3.08502 0 0 0 9.20364 -6.54527 -1.02935 -10.5025 9.49702 0.342292 7.35694 2.49506 -1.56904 -7.8893 -1.13291 2.47713 -32.444 3.04192 -4.38924 -45.5701 20.7488 -11.4881 -5.40453 -21.7903 -4.33219 -14.1452 -0.0893512 0.720153 26.0374 6.79532 17.391 49.4946 16.438 4.03547 3.56854 -0.794457 9.58309 1.50274 0.033672 2.56709 -3.72572 1.86054 2.06419 3.11201 9.02778 -9.24302 5.68274 -11.8477 0.590125 0.181305 0.0613952 -0.773005 -8.93455 5.16686 -14.3349 4.74751 4.77134 3.9056 -6.16724 -4.79323 -0.258368 3.76823 -14.0223 -3.65087 
55.335 100.03 -352.001 0.703406 -0.380485 2.81862 0 0 0 9.39263 -5.94698 -0.654164 -10.4723 8.96758 0.677135 7.32164 2.69791 -1.93933 -7.49075 -1.00104 2.03385 -32.1599 3.15325 -4.73794 -45.6951 20.3847 -11.4744 -5.314 -21.5327 -4.03094 -14.4444 -0.0756304 0.596812 26.1342 6.74442 17.1789 49.5917 15.8876 3.14214 2.9787 0.197354 10.838 1.86259 0.0477167 2.93476 -3.18447 1.56759 2.81489 2.36185 9.66962 -9.7652 5.87314 -12.3297 0.63493 0.116991 0.149083 -0.526676 -8.51832 4.71854 -13.5473 4.03249 5.34312 3.5388 -5.82239 -5.13219 -0.261165 3.69573 -13.713 -4.8033 
55.5494 99.9902 -352.048 0.360236 0.0294436 2.80253 0 0 0 9.24616 -6.03547 -0.455249 -9.69114 8.99315 0.658612 6.73283 2.06287 -2.33338 -7.84904 0.0462176 1.56818 -33.0146 3.13869 -4.52059 -44.714 20.0726 -11.6346 -5.05825 -19.6961 -4.21735 -13.9214 0.0346512 -0.283821 25.9051 6.88985 17.758 49.3855 15.0392 2.32361 2.64212 -0.159195 11.514 1.57336 0.0346034 2.51969 -2.51288 0.00852253 3.48755 1.60367 12.0654 -10.5009 6.77642 -13.379 0.795701 0.128056 -0.022486 -0.529658 -7.99754 4.03728 -12.7546 3.41102 5.64347 2.69567 -5.75093 -5.49492 -0.276213 3.48892 -12.8487 -3.94304 
55.867 99.9433 -352.014 0.311989 0.0767692 2.65819 0 0 0 9.41958 -5.61461 -0.210594 -10.0772 8.81141 1.01026 7.48806 3.24569 -2.02382 -7.0944 -2.14194 1.88376 -31.5736 3.14238 -4.83694 -45.993 18.6085 -11.6876 -4.43335 -16.0697 -3.84579 -12.8623 0.18903 -1.67689 26.2851 6.8273 17.3363 49.1646 13.8862 1.86899 1.97805 0.740918 12.3333 2.0762 0.051805 2.85837 -2.29039 -0.783636 3.96074 0.922748 13.8725 -10.8254 7.31813 -14.5008 0.932283 0.0645357 1.05755 -0.535707 -7.9243 3.58828 -12.2621 2.80294 6.41281 2.38409 -5.78401 -5.88269 -0.297442 3.4898 -12.799 -5.16486 
56.1491 99.8534 -351.951 0.0559823 0.238058 2.42452 0 0 0 8.58438 -4.97492 0.137016 -8.35348 8.37503 1.01128 6.80003 3.2956 -2.25304 -6.7285 -2.15107 1.35857 -33.0506 3.31772 -4.96906 -44.2725 19.3811 -11.8892 -4.60077 -15.5892 -3.79572 -11.4479 0.308505 -3.07707 26.2918 6.76465 17.1447 47.449 15.7072 3.16535 3.62285 -2.14386 9.937 1.94752 0.0624342 3.672 -1.86552 -1.64415 4.45803 0.376615 15.5629 -11.0108 7.71986 -15.3541 1.04217 0.130365 0.651624 -0.705225 -7.48789 2.65026 -11.2788 1.81418 7.96301 1.54435 -5.25204 -7.08964 -0.32558 3.32939 -12.0564 -5.56158 
